<svg width="642" height="643" viewBox="0 0 642 643" fill="none" xmlns="http://www.w3.org/2000/svg">
<path d="M352.422 32.5265C500.52 32.5265 609.5 178.266 609.5 342.856C609.5 394.731 579.687 436.813 541.109 469.101C502.399 501.499 450.954 527.529 397.683 547.848C291.35 588.405 168.716 609.526 102.178 609.526C87.0585 609.526 72.8001 608.95 62.1855 605.926C57.4532 604.578 46.3347 600.898 38.8379 589.972C29.2589 576.011 32.4856 561.518 35.9287 553.826C38.9579 547.059 43.4897 541.892 46.1543 539.022C49.2278 535.711 52.7409 532.433 55.9189 529.542C62.856 523.233 69.5076 517.541 77.0127 510.174C91.7229 495.734 104.656 479.491 110.5 460.366C115.941 442.559 116.348 418.634 99.0732 385.755L98.5449 384.75L98.0879 383.711C52.1197 279.074 81.3762 188.96 139.93 127.038C196.638 67.0673 281.332 32.5265 352.422 32.5265Z" fill="white" stroke="black" stroke-width="65"/>
<path d="M270.466 323.858C265.704 323.858 261.338 322.667 257.369 320.286C253.4 317.904 250.225 314.729 247.844 310.76C245.621 306.792 244.51 302.505 244.51 297.901C244.51 293.139 245.621 288.852 247.844 285.042C250.225 281.074 253.4 277.898 257.369 275.517C261.338 273.136 265.624 271.945 270.228 271.945C275.308 271.945 279.753 273.136 283.563 275.517C287.532 277.898 290.628 281.074 292.85 285.042C295.232 288.852 296.422 293.139 296.422 297.901C296.422 302.505 295.232 306.792 292.85 310.76C290.628 314.729 287.532 317.904 283.563 320.286C279.753 322.667 275.387 323.858 270.466 323.858ZM340.984 323.858C336.222 323.858 331.856 322.667 327.887 320.286C323.918 317.904 320.743 314.729 318.362 310.76C316.139 306.792 315.028 302.505 315.028 297.901C315.028 293.139 316.139 288.852 318.362 285.042C320.743 281.074 323.918 277.898 327.887 275.517C331.856 273.136 336.142 271.945 340.746 271.945C345.826 271.945 350.271 273.136 354.081 275.517C358.05 277.898 361.146 281.074 363.368 285.042C365.75 288.852 366.94 293.139 366.94 297.901C366.94 302.505 365.75 306.792 363.368 310.76C361.146 314.729 358.05 317.904 354.081 320.286C350.271 322.667 345.906 323.858 340.984 323.858ZM411.502 323.858C406.74 323.858 402.374 322.667 398.405 320.286C394.436 317.904 391.261 314.729 388.88 310.76C386.657 306.792 385.546 302.505 385.546 297.901C385.546 293.139 386.657 288.852 388.88 285.042C391.261 281.074 394.436 277.898 398.405 275.517C402.374 273.136 406.66 271.945 411.264 271.945C416.344 271.945 420.789 273.136 424.599 275.517C428.568 277.898 431.664 281.074 433.886 285.042C436.268 288.852 437.458 293.139 437.458 297.901C437.458 302.505 436.268 306.792 433.886 310.76C431.664 314.729 428.568 317.904 424.599 320.286C420.789 322.667 416.424 323.858 411.502 323.858Z" fill="black"/>
</svg>
