<svg width="982" height="982" viewBox="0 0 982 982" fill="none" xmlns="http://www.w3.org/2000/svg">
<path d="M548.589 9.60815C784.143 9.60846 971.823 245.018 971.823 530.921C971.823 605.568 929.111 670.293 863.861 724.903C798.573 779.546 709.573 825.086 614.041 861.523C423.039 934.374 203.247 971.823 87.6896 971.823C59.2483 971.823 39.6895 970.502 27.8019 967.115C22.0281 965.47 16.0144 962.8 12.4659 957.629C8.30206 951.56 9.31772 944.974 11.5372 940.015C13.6345 935.33 17.3164 930.734 21.3312 926.41C25.4669 921.955 30.6184 917.103 36.3019 911.933C47.8406 901.438 61.8198 889.399 76.5421 874.948C105.898 846.132 136.691 809.113 151.075 762.036C165.341 715.349 163.805 657.648 126.455 586.56L126.3 586.263L126.164 585.956C50.5686 413.877 98.0837 269.106 193.733 167.954C288.836 67.3789 431.686 9.60815 548.589 9.60815Z" fill="white" stroke="#913FF5" stroke-width="19.2156"/>
<path d="M357.474 503.468C348.537 503.468 340.345 501.234 332.897 496.766C325.449 492.297 319.491 486.339 315.023 478.891C310.852 471.444 308.767 463.4 308.767 454.761C308.767 445.824 310.852 437.78 315.023 430.631C319.491 423.183 325.449 417.225 332.897 412.756C340.345 408.288 348.388 406.054 357.027 406.054C366.56 406.054 374.902 408.288 382.051 412.756C389.499 417.225 395.308 423.183 399.479 430.631C403.947 437.78 406.182 445.824 406.182 454.761C406.182 463.4 403.947 471.444 399.479 478.891C395.308 486.339 389.499 492.297 382.051 496.766C374.902 501.234 366.709 503.468 357.474 503.468ZM489.803 503.468C480.866 503.468 472.674 501.234 465.226 496.766C457.779 492.297 451.82 486.339 447.352 478.891C443.181 471.444 441.096 463.4 441.096 454.761C441.096 445.824 443.181 437.78 447.352 430.631C451.82 423.183 457.779 417.225 465.226 412.756C472.674 408.288 480.717 406.054 489.356 406.054C498.889 406.054 507.231 408.288 514.38 412.756C521.828 417.225 527.637 423.183 531.808 430.631C536.277 437.78 538.511 445.824 538.511 454.761C538.511 463.4 536.277 471.444 531.808 478.891C527.637 486.339 521.828 492.297 514.38 496.766C507.231 501.234 499.038 503.468 489.803 503.468ZM622.132 503.468C613.195 503.468 605.003 501.234 597.555 496.766C590.108 492.297 584.15 486.339 579.681 478.891C575.51 471.444 573.425 463.4 573.425 454.761C573.425 445.824 575.51 437.78 579.681 430.631C584.15 423.183 590.108 417.225 597.555 412.756C605.003 408.288 613.046 406.054 621.686 406.054C631.219 406.054 639.56 408.288 646.71 412.756C654.157 417.225 659.966 423.183 664.137 430.631C668.606 437.78 670.84 445.824 670.84 454.761C670.84 463.4 668.606 471.444 664.137 478.891C659.966 486.339 654.157 492.297 646.71 496.766C639.56 501.234 631.368 503.468 622.132 503.468Z" fill="#913FF5"/>
</svg>
