<svg width="642" height="642" viewBox="0 0 642 642" fill="none" xmlns="http://www.w3.org/2000/svg">
<path d="M352.422 32.5C500.52 32.5 609.5 178.24 609.5 342.829C609.5 394.704 579.687 436.787 541.109 469.074C502.399 501.473 450.954 527.503 397.683 547.821C291.35 588.378 168.716 609.5 102.178 609.5C87.0585 609.5 72.8001 608.924 62.1855 605.899C57.4532 604.551 46.3347 600.872 38.8379 589.945C29.2589 575.984 32.4856 561.492 35.9287 553.8C38.9579 547.032 43.4897 541.865 46.1543 538.995C49.2278 535.685 52.7409 532.406 55.9189 529.516C62.856 523.206 69.5076 517.514 77.0127 510.147C91.7229 495.708 104.656 479.465 110.5 460.34C115.941 442.532 116.348 418.607 99.0732 385.729L98.5449 384.724L98.0879 383.685C52.1197 279.047 81.3762 188.934 139.93 127.012C196.638 67.0408 281.332 32.5 352.422 32.5Z" fill="black" stroke="white" stroke-width="65"/>
<path d="M270.466 323.831C265.704 323.831 261.338 322.64 257.369 320.259C253.4 317.878 250.225 314.703 247.844 310.734C245.621 306.765 244.51 302.479 244.51 297.875C244.51 293.112 245.621 288.826 247.844 285.016C250.225 281.047 253.4 277.872 257.369 275.491C261.338 273.109 265.624 271.919 270.228 271.919C275.308 271.919 279.753 273.109 283.563 275.491C287.532 277.872 290.628 281.047 292.85 285.016C295.232 288.826 296.422 293.112 296.422 297.875C296.422 302.479 295.232 306.765 292.85 310.734C290.628 314.703 287.532 317.878 283.563 320.259C279.753 322.64 275.387 323.831 270.466 323.831ZM340.984 323.831C336.222 323.831 331.856 322.64 327.887 320.259C323.918 317.878 320.743 314.703 318.362 310.734C316.139 306.765 315.028 302.479 315.028 297.875C315.028 293.112 316.139 288.826 318.362 285.016C320.743 281.047 323.918 277.872 327.887 275.491C331.856 273.109 336.142 271.919 340.746 271.919C345.826 271.919 350.271 273.109 354.081 275.491C358.05 277.872 361.146 281.047 363.368 285.016C365.75 288.826 366.94 293.112 366.94 297.875C366.94 302.479 365.75 306.765 363.368 310.734C361.146 314.703 358.05 317.878 354.081 320.259C350.271 322.64 345.906 323.831 340.984 323.831ZM411.502 323.831C406.74 323.831 402.374 322.64 398.405 320.259C394.436 317.878 391.261 314.703 388.88 310.734C386.657 306.765 385.546 302.479 385.546 297.875C385.546 293.112 386.657 288.826 388.88 285.016C391.261 281.047 394.436 277.872 398.405 275.491C402.374 273.109 406.66 271.919 411.264 271.919C416.344 271.919 420.789 273.109 424.599 275.491C428.568 277.872 431.664 281.047 433.886 285.016C436.268 288.826 437.458 293.112 437.458 297.875C437.458 302.479 436.268 306.765 433.886 310.734C431.664 314.703 428.568 317.878 424.599 320.259C420.789 322.64 416.424 323.831 411.502 323.831Z" fill="white"/>
</svg>
